# xmcd
#
# Track frame offsets:
#	150
#	13430
#	25659
#	44505
#	61505
#	79871
#	97226
#	111614
#	132613
#	146973
#	159494
#	178619
#	190715
#
# Disc length: 3017 seconds
# Revision: 0
# Processed by: cddbd v1.5.2PL0 Copyright (c) Steve Scherf et al.
# Submitted via: dBpowerAMP V12.0
#
DISCID=bd0bc70d
DTITLE=Quinn Sullivan - Getting There
DYEAR=2013
DGENRE=Blues
TTITLE0=Checkin' Out
TTITLE1=Catch a Groove
TTITLE2=Getting There
TTITLE3=World In Change
TTITLE4=Mr. Gloom
TTITLE5=I Know I Know
TTITLE6=Rock Hard
TTITLE7=She Gets Me
TTITLE8=Cyclone
TTITLE9=Like Your Love
TTITLE10=Things I Won't Forget
TTITLE11=End of the Day
TTITLE12=Got To Get Better In a Little While
EXTD=
EXTT0=
EXTT1=
EXTT2=
EXTT3=
EXTT4=
EXTT5=
EXTT6=
EXTT7=
EXTT8=
EXTT9=
EXTT10=
EXTT11=
EXTT12=
PLAYORDER=
